# xmcd
#
# Track frame offsets: 
#        182
#        25527
#        47710
#        65260
#        85220
#        106237
#        124620
#        139132
#        163852
#        180495
#        200742
#        217980
#        237480
#        253742
#        274197
#        290897
#        310057
#        330720
#
# Disc length: 4656 seconds
#
# Revision: 2
# Processed by: cddbd v1.5.2PL0 Copyright (c) Steve Scherf et al.
# Submitted via: ExactAudioCopy v1.0b3
#
DISCID=0c122e12
DTITLE=Various Artist - Blues Album
DYEAR=1900
DGENRE=
TTITLE0=John Lee Hooker,Carlos Santana - The Healer
TTITLE1=The Vaughan Brothers - Tick Tock
TTITLE2=FleetWood Mac - Need Your Love So Bad
TTITLE3=Buddy Guy - Damn Right, I've Got The Blues
TTITLE4=Lonnie Mack - Stop
TTITLE5=Rory Block - Lovin'Whiskey
TTITLE6=Chicken Shack - I'D RatherGo Blind
TTITLE7=Lonnie Brooks - Mr. Somebody
TTITLE8=Steve Miller Band - Mercury Blues
TTITLE9=John Lee Hooker and Bonnie Raitt - I'm in the Mood
TTITLE10=Albert Collins and Robert Cray - The Dream
TTITLE11=Muddy Waters - Mannish Boy
TTITLE12=Brendan Croker and The 5 O'clock Shadows - No Money At All
TTITLE13=Koko Taylor - I'm a Woman
TTITLE14=Stevie Ray Vaughan and Double Trouble - The Sky is Crying
TTITLE15=The Paladins - You and I
TTITLE16=Alvin Lee - Real Life Blues
TTITLE17=Big John's Blues Fantasy - Still Got The Blues(For You)
EXTD=
EXTT0=
EXTT1=
EXTT2=
EXTT3=
EXTT4=
EXTT5=
EXTT6=
EXTT7=
EXTT8=
EXTT9=
EXTT10=
EXTT11=
EXTT12=
EXTT13=
EXTT14=
EXTT15=
EXTT16=
EXTT17=
PLAYORDER=
